<?xml version="1.0" encoding="UTF-8"?>
<svg id="Calque_2" data-name="Calque 2" xmlns="http://www.w3.org/2000/svg" viewBox="0 0 54 54">
  <defs>
    <style>
      .cls-1 {
        fill: #ffe600;
        fill-rule: evenodd;
      }
    </style>
  </defs>
  <g id="Calque_1-2" data-name="Calque 1">
    <path class="cls-1" d="m6,33l6-6-6-6L0,27l6,6Z"/>
    <path class="cls-1" d="m48,33l6-6-6-6-6,6,6,6Z"/>
    <path class="cls-1" d="m27,33l6-6-6-6-6,6,6,6Z"/>
    <path class="cls-1" d="m30,3l-3-3L10.5,16.5l6,6,10.5-10.5,10.5,10.5,6-6L30,3Z"/>
    <path class="cls-1" d="m24,51l3,3,16.5-16.5-6-6-10.5,10.5-10.5-10.5-6,6,13.5,13.5Z"/>
  </g>
</svg>